<mxfile host="65bd71144e" scale="10" border="0">
    <diagram id="gvL7iBt-RJOpGDOW2Q3G" name="Page-1">
        <mxGraphModel dx="1098" dy="780" grid="1" gridSize="10" guides="1" tooltips="1" connect="1" arrows="1" fold="1" page="1" pageScale="1" pageWidth="827" pageHeight="1169" math="0" shadow="0">
            <root>
                <mxCell id="0"/>
                <mxCell id="1" parent="0"/>
                <mxCell id="8" value="" style="group" parent="1" vertex="1" connectable="0">
                    <mxGeometry x="339" y="380" width="150" height="120" as="geometry"/>
                </mxCell>
                <mxCell id="7" value="Core" style="rounded=0;whiteSpace=wrap;html=1;align=left;verticalAlign=top;" parent="8" vertex="1">
                    <mxGeometry width="150" height="120" as="geometry"/>
                </mxCell>
                <mxCell id="2" value="Core Python application" style="ellipse;whiteSpace=wrap;html=1;" parent="8" vertex="1">
                    <mxGeometry x="11.82" y="25" width="126.36" height="80" as="geometry"/>
                </mxCell>
                <mxCell id="15" value="" style="group" vertex="1" connectable="0" parent="1">
                    <mxGeometry x="40" y="210" width="150" height="200" as="geometry"/>
                </mxCell>
                <mxCell id="16" value="Code assistant" style="rounded=0;whiteSpace=wrap;html=1;align=left;verticalAlign=top;" vertex="1" parent="15">
                    <mxGeometry width="150" height="200" as="geometry"/>
                </mxCell>
                <mxCell id="17" value="" style="group" vertex="1" connectable="0" parent="15">
                    <mxGeometry width="150" height="200" as="geometry"/>
                </mxCell>
                <mxCell id="18" value="GPT" style="ellipse;whiteSpace=wrap;html=1;" vertex="1" parent="17">
                    <mxGeometry x="11.82" y="31.581818181818182" width="126.36" height="50.236363636363635" as="geometry"/>
                </mxCell>
                <mxCell id="23" value="" style="endArrow=none;dashed=1;html=1;dashPattern=1 3;strokeWidth=2;" edge="1" parent="17">
                    <mxGeometry width="50" height="50" relative="1" as="geometry">
                        <mxPoint x="74.5" y="170" as="sourcePoint"/>
                        <mxPoint x="74.5" y="189.0909090909091" as="targetPoint"/>
                    </mxGeometry>
                </mxCell>
                <mxCell id="22" value="LLaMA" style="ellipse;whiteSpace=wrap;html=1;" vertex="1" parent="15">
                    <mxGeometry x="11.82" y="99.99909090909091" width="126.36" height="49.28181818181818" as="geometry"/>
                </mxCell>
                <mxCell id="27" value="" style="group" vertex="1" connectable="0" parent="1">
                    <mxGeometry x="40" y="440" width="150" height="200" as="geometry"/>
                </mxCell>
                <mxCell id="28" value="Idea assistant" style="rounded=0;whiteSpace=wrap;html=1;align=left;verticalAlign=top;" vertex="1" parent="27">
                    <mxGeometry width="150" height="200" as="geometry"/>
                </mxCell>
                <mxCell id="29" value="" style="group" vertex="1" connectable="0" parent="27">
                    <mxGeometry width="150" height="200" as="geometry"/>
                </mxCell>
                <mxCell id="30" value="GPT" style="ellipse;whiteSpace=wrap;html=1;" vertex="1" parent="29">
                    <mxGeometry x="11.82" y="31.581818181818182" width="126.36" height="50.236363636363635" as="geometry"/>
                </mxCell>
                <mxCell id="31" value="" style="endArrow=none;dashed=1;html=1;dashPattern=1 3;strokeWidth=2;" edge="1" parent="29">
                    <mxGeometry width="50" height="50" relative="1" as="geometry">
                        <mxPoint x="74.5" y="170" as="sourcePoint"/>
                        <mxPoint x="74.5" y="189.0909090909091" as="targetPoint"/>
                    </mxGeometry>
                </mxCell>
                <mxCell id="32" value="LLaMA" style="ellipse;whiteSpace=wrap;html=1;" vertex="1" parent="27">
                    <mxGeometry x="11.82" y="99.99909090909091" width="126.36" height="49.28181818181818" as="geometry"/>
                </mxCell>
                <mxCell id="36" value="" style="group" vertex="1" connectable="0" parent="1">
                    <mxGeometry x="650" y="330" width="150" height="220" as="geometry"/>
                </mxCell>
                <mxCell id="6" value="Runtime" style="rounded=0;whiteSpace=wrap;html=1;align=left;verticalAlign=top;" parent="36" vertex="1">
                    <mxGeometry width="150" height="220" as="geometry"/>
                </mxCell>
                <mxCell id="33" value="Python Runtime" style="ellipse;whiteSpace=wrap;html=1;" vertex="1" parent="36">
                    <mxGeometry x="13.639999999999986" y="30.00181818181818" width="126.36" height="50.236363636363635" as="geometry"/>
                </mxCell>
                <mxCell id="34" value="Jupyter Server" style="ellipse;whiteSpace=wrap;html=1;" vertex="1" parent="36">
                    <mxGeometry x="13.639999999999986" y="94.88181818181818" width="126.36" height="50.236363636363635" as="geometry"/>
                </mxCell>
                <mxCell id="35" value="Apache Zeppelin" style="ellipse;whiteSpace=wrap;html=1;" vertex="1" parent="36">
                    <mxGeometry x="13.639999999999986" y="160.00181818181818" width="126.36" height="50.236363636363635" as="geometry"/>
                </mxCell>
                <mxCell id="37" style="edgeStyle=orthogonalEdgeStyle;html=1;entryX=1;entryY=0.5;entryDx=0;entryDy=0;exitX=0;exitY=0;exitDx=0;exitDy=0;endArrow=none;endFill=0;" edge="1" parent="1" source="2" target="18">
                    <mxGeometry relative="1" as="geometry">
                        <Array as="points">
                            <mxPoint x="300" y="417"/>
                            <mxPoint x="300" y="267"/>
                        </Array>
                    </mxGeometry>
                </mxCell>
                <mxCell id="50" value="HTTP (Rest API)" style="edgeLabel;html=1;align=center;verticalAlign=middle;resizable=0;points=[];" vertex="1" connectable="0" parent="37">
                    <mxGeometry x="0.5194" y="1" relative="1" as="geometry">
                        <mxPoint x="-20" y="-1" as="offset"/>
                    </mxGeometry>
                </mxCell>
                <mxCell id="38" style="edgeStyle=orthogonalEdgeStyle;html=1;entryX=1;entryY=0.5;entryDx=0;entryDy=0;exitX=0.021;exitY=0.368;exitDx=0;exitDy=0;endArrow=none;endFill=0;exitPerimeter=0;" edge="1" parent="1" source="2" target="22">
                    <mxGeometry relative="1" as="geometry">
                        <Array as="points">
                            <mxPoint x="351" y="434"/>
                            <mxPoint x="230" y="434"/>
                            <mxPoint x="230" y="335"/>
                        </Array>
                    </mxGeometry>
                </mxCell>
                <mxCell id="52" value="&lt;span style=&quot;color: rgba(0, 0, 0, 0); font-family: monospace; font-size: 0px; text-align: start; background-color: rgb(251, 251, 251);&quot;&gt;%3CmxGraphModel%3E%3Croot%3E%3CmxCell%20id%3D%220%22%2F%3E%3CmxCell%20id%3D%221%22%20parent%3D%220%22%2F%3E%3CmxCell%20id%3D%222%22%20value%3D%22HTTP%20(Rest%20API)%22%20style%3D%22edgeLabel%3Bhtml%3D1%3Balign%3Dcenter%3BverticalAlign%3Dmiddle%3Bresizable%3D0%3Bpoints%3D%5B%5D%3B%22%20vertex%3D%221%22%20connectable%3D%220%22%20parent%3D%221%22%3E%3CmxGeometry%20x%3D%22240.31763907201548%22%20y%3D%22266.67752489950794%22%20as%3D%22geometry%22%2F%3E%3C%2FmxCell%3E%3C%2Froot%3E%3C%2FmxGraphModel%3&lt;/span&gt;&lt;span style=&quot;color: rgba(0, 0, 0, 0); font-family: monospace; font-size: 0px; text-align: start; background-color: rgb(251, 251, 251);&quot;&gt;%3CmxGraphModel%3E%3Croot%3E%3CmxCell%20id%3D%220%22%2F%3E%3CmxCell%20id%3D%221%22%20parent%3D%220%22%2F%3E%3CmxCell%20id%3D%222%22%20value%3D%22HTTP%20(Rest%20API)%22%20style%3D%22edgeLabel%3Bhtml%3D1%3Balign%3Dcenter%3BverticalAlign%3Dmiddle%3Bresizable%3D0%3Bpoints%3D%5B%5D%3B%22%20vertex%3D%221%22%20connectable%3D%220%22%20parent%3D%221%22%3E%3CmxGeometry%20x%3D%22240.31763907201548%22%20y%3D%22266.67752489950794%22%20as%3D%22geometry%22%2F%3E%3C%2FmxCell%3E%3C%2Froot%3E%3C%2FmxGraphModel%3E&lt;/span&gt;" style="edgeLabel;html=1;align=center;verticalAlign=middle;resizable=0;points=[];" vertex="1" connectable="0" parent="38">
                    <mxGeometry x="-0.4544" y="1" relative="1" as="geometry">
                        <mxPoint as="offset"/>
                    </mxGeometry>
                </mxCell>
                <mxCell id="53" value="HTTP (Rest API)" style="edgeLabel;html=1;align=center;verticalAlign=middle;resizable=0;points=[];" vertex="1" connectable="0" parent="38">
                    <mxGeometry x="-0.4483" y="-1" relative="1" as="geometry">
                        <mxPoint x="2" as="offset"/>
                    </mxGeometry>
                </mxCell>
                <mxCell id="39" style="edgeStyle=orthogonalEdgeStyle;html=1;exitX=0.021;exitY=0.597;exitDx=0;exitDy=0;entryX=1;entryY=0.5;entryDx=0;entryDy=0;endArrow=none;endFill=0;exitPerimeter=0;" edge="1" parent="1" source="2" target="30">
                    <mxGeometry relative="1" as="geometry">
                        <Array as="points">
                            <mxPoint x="230" y="453"/>
                            <mxPoint x="230" y="497"/>
                        </Array>
                    </mxGeometry>
                </mxCell>
                <mxCell id="54" value="HTTP (Rest API)" style="edgeLabel;html=1;align=center;verticalAlign=middle;resizable=0;points=[];" vertex="1" connectable="0" parent="39">
                    <mxGeometry x="-0.316" y="2" relative="1" as="geometry">
                        <mxPoint as="offset"/>
                    </mxGeometry>
                </mxCell>
                <mxCell id="40" style="edgeStyle=orthogonalEdgeStyle;html=1;exitX=0;exitY=1;exitDx=0;exitDy=0;entryX=1;entryY=0.5;entryDx=0;entryDy=0;endArrow=none;endFill=0;" edge="1" parent="1" source="2" target="32">
                    <mxGeometry relative="1" as="geometry">
                        <Array as="points">
                            <mxPoint x="300" y="473"/>
                            <mxPoint x="300" y="565"/>
                        </Array>
                    </mxGeometry>
                </mxCell>
                <mxCell id="55" value="HTTP (Rest API)" style="edgeLabel;html=1;align=center;verticalAlign=middle;resizable=0;points=[];" vertex="1" connectable="0" parent="40">
                    <mxGeometry x="0.679" y="-2" relative="1" as="geometry">
                        <mxPoint x="17" y="2" as="offset"/>
                    </mxGeometry>
                </mxCell>
                <mxCell id="44" value="" style="group" vertex="1" connectable="0" parent="1">
                    <mxGeometry x="350" y="670" width="150" height="90" as="geometry"/>
                </mxCell>
                <mxCell id="45" value="" style="group" vertex="1" connectable="0" parent="44">
                    <mxGeometry x="-11" y="-120" width="150" height="90" as="geometry"/>
                </mxCell>
                <mxCell id="42" value="UI" style="rounded=0;whiteSpace=wrap;html=1;align=left;verticalAlign=top;" vertex="1" parent="45">
                    <mxGeometry width="150" height="90" as="geometry"/>
                </mxCell>
                <mxCell id="43" value="Frontend Application" style="ellipse;whiteSpace=wrap;html=1;" vertex="1" parent="45">
                    <mxGeometry x="11.82" y="22.5" width="126.36" height="45" as="geometry"/>
                </mxCell>
                <mxCell id="46" style="edgeStyle=orthogonalEdgeStyle;html=1;exitX=1;exitY=0;exitDx=0;exitDy=0;entryX=0;entryY=0.5;entryDx=0;entryDy=0;endArrow=none;endFill=0;" edge="1" parent="1" source="2" target="33">
                    <mxGeometry relative="1" as="geometry"/>
                </mxCell>
                <mxCell id="60" value="SSH" style="edgeLabel;html=1;align=center;verticalAlign=middle;resizable=0;points=[];" vertex="1" connectable="0" parent="46">
                    <mxGeometry x="0.4217" y="1" relative="1" as="geometry">
                        <mxPoint x="15" y="1" as="offset"/>
                    </mxGeometry>
                </mxCell>
                <mxCell id="47" style="edgeStyle=orthogonalEdgeStyle;html=1;exitX=1;exitY=0.5;exitDx=0;exitDy=0;endArrow=none;endFill=0;" edge="1" parent="1" source="2">
                    <mxGeometry relative="1" as="geometry">
                        <mxPoint x="670" y="445" as="targetPoint"/>
                        <Array as="points">
                            <mxPoint x="664" y="445"/>
                        </Array>
                    </mxGeometry>
                </mxCell>
                <mxCell id="59" value="HTTP (Rest API) / WebSockets" style="edgeLabel;html=1;align=center;verticalAlign=middle;resizable=0;points=[];" vertex="1" connectable="0" parent="47">
                    <mxGeometry x="0.276" relative="1" as="geometry">
                        <mxPoint x="-31" as="offset"/>
                    </mxGeometry>
                </mxCell>
                <mxCell id="48" style="edgeStyle=orthogonalEdgeStyle;html=1;exitX=1;exitY=1;exitDx=0;exitDy=0;entryX=0;entryY=0.5;entryDx=0;entryDy=0;endArrow=none;endFill=0;" edge="1" parent="1" source="2" target="35">
                    <mxGeometry relative="1" as="geometry"/>
                </mxCell>
                <mxCell id="57" value="HTTP (Rest API)" style="edgeLabel;html=1;align=center;verticalAlign=middle;resizable=0;points=[];" vertex="1" connectable="0" parent="48">
                    <mxGeometry x="0.5131" y="-1" relative="1" as="geometry">
                        <mxPoint x="17" as="offset"/>
                    </mxGeometry>
                </mxCell>
                <mxCell id="49" style="edgeStyle=orthogonalEdgeStyle;html=1;exitX=0.5;exitY=1;exitDx=0;exitDy=0;entryX=0.5;entryY=0;entryDx=0;entryDy=0;endArrow=none;endFill=0;" edge="1" parent="1" source="2" target="43">
                    <mxGeometry relative="1" as="geometry"/>
                </mxCell>
                <mxCell id="56" value="HTTP (Rest API)" style="edgeLabel;html=1;align=center;verticalAlign=middle;resizable=0;points=[];" vertex="1" connectable="0" parent="49">
                    <mxGeometry x="-0.1556" y="1" relative="1" as="geometry">
                        <mxPoint as="offset"/>
                    </mxGeometry>
                </mxCell>
                <mxCell id="61" value="Database" style="sketch=0;outlineConnect=0;fontColor=#232F3E;gradientColor=none;fillColor=#232F3D;strokeColor=none;dashed=0;verticalLabelPosition=top;verticalAlign=bottom;align=center;html=1;fontSize=12;fontStyle=0;aspect=fixed;pointerEvents=1;shape=mxgraph.aws4.generic_database;labelPosition=center;" vertex="1" parent="1">
                    <mxGeometry x="339" y="230" width="59" height="78" as="geometry"/>
                </mxCell>
                <mxCell id="66" value="Storage&lt;br&gt;" style="sketch=0;pointerEvents=1;shadow=0;dashed=0;html=1;strokeColor=none;fillColor=#505050;labelPosition=center;verticalLabelPosition=top;verticalAlign=bottom;outlineConnect=0;align=center;shape=mxgraph.office.devices.hard_disk;" vertex="1" parent="1">
                    <mxGeometry x="449" y="242" width="40" height="54" as="geometry"/>
                </mxCell>
                <mxCell id="67" style="edgeStyle=orthogonalEdgeStyle;html=1;exitX=0.25;exitY=0;exitDx=0;exitDy=0;endArrow=none;endFill=0;" edge="1" parent="1" source="7" target="61">
                    <mxGeometry relative="1" as="geometry"/>
                </mxCell>
                <mxCell id="68" style="edgeStyle=orthogonalEdgeStyle;html=1;exitX=0.75;exitY=0;exitDx=0;exitDy=0;endArrow=none;endFill=0;" edge="1" parent="1" source="7" target="66">
                    <mxGeometry relative="1" as="geometry"/>
                </mxCell>
            </root>
        </mxGraphModel>
    </diagram>
</mxfile>